<?xml version="1.0" encoding="UTF-8"?>
<!DOCTYPE svg PUBLIC "-//W3C//DTD SVG 1.1//EN" "http://www.w3.org/Graphics/SVG/1.1/DTD/svg11.dtd">
<svg xmlns="http://www.w3.org/2000/svg" version="1.1" width="1000px" height="1000px" style="shape-rendering:geometricPrecision; text-rendering:geometricPrecision; image-rendering:optimizeQuality; fill-rule:evenodd; clip-rule:evenodd" xmlns:xlink="http://www.w3.org/1999/xlink">
<g><path style="opacity:0.955" fill="#030201" d="M 682.5,824.5 C 680.973,824.427 679.973,825.094 679.5,826.5C 677.147,827.34 675.147,828.674 673.5,830.5C 617.922,868.764 556.589,893.597 489.5,905C 429.841,913.444 371.175,909.111 313.5,892C 266.852,878.118 220.852,862.451 175.5,845C 167.98,840.673 160.313,836.84 152.5,833.5C 152.263,832.209 152.596,831.209 153.5,830.5C 153.56,831.043 153.893,831.376 154.5,831.5C 157.769,830.531 160.769,829.198 163.5,827.5C 163.833,827.5 164.167,827.5 164.5,827.5C 168.57,826.644 172.57,825.477 176.5,824C 175.906,823.536 175.239,823.369 174.5,823.5C 183.207,821.209 191.874,818.376 200.5,815C 239.833,795 279.167,775 318.5,755C 352.534,735.304 382.7,710.804 409,681.5C 426.523,658.775 437.189,633.109 441,604.5C 441.5,587.503 441.667,570.503 441.5,553.5C 442.726,549.897 442.06,546.564 439.5,543.5C 438.167,537.833 436.833,532.167 435.5,526.5C 435.301,522.22 433.968,518.553 431.5,515.5C 426.074,498.314 418.24,482.314 408,467.5C 373.838,423.336 331.004,390.502 279.5,369C 246.535,358.187 212.868,355.521 178.5,361C 145.25,368.791 113.583,380.791 83.5,397C 79.3739,399.14 75.5406,401.64 72,404.5C 70.5648,396.611 70.0648,388.611 70.5,380.5C 71.1667,382.5 71.8333,384.5 72.5,386.5C 71.6167,391.103 71.2834,395.77 71.5,400.5C 77.4237,398.427 82.757,395.26 87.5,391C 114.499,374.835 143.165,362.502 173.5,354C 219.373,344.43 263.373,349.763 305.5,370C 350.37,393.534 387.87,425.701 418,466.5C 448.954,514.071 458.62,565.738 447,621.5C 440.731,649.039 428.398,673.372 410,694.5C 371.598,733.793 327.098,764.293 276.5,786C 252.049,796.392 227.716,807.058 203.5,818C 188.738,823.607 173.738,828.44 158.5,832.5C 161.801,835.156 165.468,837.322 169.5,839C 239.829,863.916 311.829,882.249 385.5,894C 475.777,899.948 559.777,879.948 637.5,834C 694.969,799.79 744.135,755.956 785,702.5C 833.956,641.753 867.289,573.086 885,496.5C 913.943,322.257 852.776,190.757 701.5,102C 621.624,58.8728 536.958,45.5395 447.5,62C 353.029,77.4633 267.362,113.13 190.5,169C 146.956,203.548 113.456,246.048 90,296.5C 82.9411,314.402 77.2745,332.735 73,351.5C 72.5008,356.155 72.3342,360.821 72.5,365.5C 71.8333,361.833 71.1667,358.167 70.5,354.5C 84.5849,279.816 120.252,217.649 177.5,168C 246.708,113.405 324.708,76.4052 411.5,57C 558.338,21.9403 687.338,55.607 798.5,158C 880.069,238.018 916.236,335.184 907,449.5C 904.817,490.569 896.15,530.235 881,568.5C 856.624,630.631 822.624,686.631 779,736.5C 750.239,769.897 718.072,799.23 682.5,824.5 Z"/></g>
<g><path style="opacity:1" fill="#e3c456" d="M 72.5,386.5 C 72.5,381.833 72.5,377.167 72.5,372.5C 72.5,370.167 72.5,367.833 72.5,365.5C 72.3342,360.821 72.5008,356.155 73,351.5C 77.2745,332.735 82.9411,314.402 90,296.5C 113.456,246.048 146.956,203.548 190.5,169C 267.362,113.13 353.029,77.4633 447.5,62C 536.958,45.5395 621.624,58.8728 701.5,102C 852.776,190.757 913.943,322.257 885,496.5C 867.289,573.086 833.956,641.753 785,702.5C 744.135,755.956 694.969,799.79 637.5,834C 559.777,879.948 475.777,899.948 385.5,894C 311.829,882.249 239.829,863.916 169.5,839C 165.468,837.322 161.801,835.156 158.5,832.5C 173.738,828.44 188.738,823.607 203.5,818C 227.716,807.058 252.049,796.392 276.5,786C 327.098,764.293 371.598,733.793 410,694.5C 428.398,673.372 440.731,649.039 447,621.5C 458.62,565.738 448.954,514.071 418,466.5C 387.87,425.701 350.37,393.534 305.5,370C 263.373,349.763 219.373,344.43 173.5,354C 143.165,362.502 114.499,374.835 87.5,391C 82.757,395.26 77.4237,398.427 71.5,400.5C 71.2834,395.77 71.6167,391.103 72.5,386.5 Z"/></g>
<g><path style="opacity:0.729" fill="#4d431f" d="M 70.5,354.5 C 71.1667,358.167 71.8333,361.833 72.5,365.5C 72.5,367.833 72.5,370.167 72.5,372.5C 71.8333,373.167 71.1667,373.833 70.5,374.5C 70.5,367.833 70.5,361.167 70.5,354.5 Z"/></g>
<g><path style="opacity:0.987" fill="#77672d" d="M 72.5,372.5 C 72.5,377.167 72.5,381.833 72.5,386.5C 71.8333,384.5 71.1667,382.5 70.5,380.5C 70.5,378.5 70.5,376.5 70.5,374.5C 71.1667,373.833 71.8333,373.167 72.5,372.5 Z"/></g>
<g><path style="opacity:0.341" fill="#7a692f" d="M 431.5,515.5 C 433.968,518.553 435.301,522.22 435.5,526.5C 433.425,523.173 432.091,519.506 431.5,515.5 Z"/></g>
<g><path style="opacity:0.094" fill="#bea448" d="M 439.5,543.5 C 442.06,546.564 442.726,549.897 441.5,553.5C 440.213,550.302 439.547,546.969 439.5,543.5 Z"/></g>
<g><path style="opacity:0.016" fill="#000000" d="M 165.5,821.5 C 166.833,822.167 166.833,822.167 165.5,821.5 Z"/></g>
<g><path style="opacity:0.099" fill="#d4b751" d="M 174.5,823.5 C 175.239,823.369 175.906,823.536 176.5,824C 172.57,825.477 168.57,826.644 164.5,827.5C 167.37,825.206 170.703,823.872 174.5,823.5 Z"/></g>
<g><path style="opacity:0.276" fill="#d8bb52" d="M 682.5,824.5 C 682.027,825.906 681.027,826.573 679.5,826.5C 679.973,825.094 680.973,824.427 682.5,824.5 Z"/></g>
<g><path style="opacity:0.102" fill="#dabc53" d="M 163.5,827.5 C 160.769,829.198 157.769,830.531 154.5,831.5C 153.893,831.376 153.56,831.043 153.5,830.5C 156.381,828.32 159.714,827.32 163.5,827.5 Z"/></g>
<g><path style="opacity:0.243" fill="#cfb34f" d="M 679.5,826.5 C 678.198,828.822 676.198,830.155 673.5,830.5C 675.147,828.674 677.147,827.34 679.5,826.5 Z"/></g>
</svg>
